<svg xmlns="http://www.w3.org/2000/svg" width="32" height="32"><path d="M16 0C7.164 0 0 7.164 0 16s7.164 16 16 16 16-7.164 16-16S24.836 0 16 0zm14.96 16A14.965 14.965 0 0 1 16 30.96 14.965 14.965 0 0 1 1.04 16 14.965 14.965 0 0 1 16 1.04 14.965 14.965 0 0 1 30.96 16zm-7.205-6.788a13.85 13.85 0 0 1 .706.838l3.241-2.057-.613-.761-2.051 1.357-.141.121.105-.153.907-1.808-.641-.641-1.809.907-.153.105.122-.141 1.358-2.051-.762-.614-2.057 3.236.823.695 1.936-1.005.124-.091-.091.124zm-7.353-4.103l.885-1.983.057-.176-.016.183.094 2.65.947.125-.144-3.924-1.323-.102-.873 2.164-.031.161-.031-.161-.871-2.164-1.323.102-.144 3.924.948-.125.093-2.65-.016-.183.057.176.885 1.983zM9.243 8.237c.512-.539.801-1.162.29-1.756-.278-.323-.747-.394-1.134-.235l-.038.015.012-.034a.939.939 0 0 0-.322-.98.971.971 0 0 0-.716-.199c-.481.049-.851.378-1.857 1.5L4.467 7.767l2.764 2.622 2.012-2.153zm-3.607-.641a17.091 17.091 0 0 1 1.417-1.543.718.718 0 0 1 .289-.185c.181-.05.368.079.411.265s-.075.366-.206.512L6.172 8.107zm1.083 1.027l1.395-1.468c.137-.141.224-.227.318-.273.122-.059.254-.071.372.007s.171.213.141.347c-.034.159-.164.31-.271.426L7.279 9.154zM25.488 16H16V6.512A9.483 9.483 0 0 1 25.488 16zM16 16v9.488A9.483 9.483 0 0 1 6.512 16z" fill="#fff"/><path d="M16 6.512V16H6.512A9.483 9.483 0 0 1 16 6.512zM25.488 16A9.483 9.483 0 0 1 16 25.488V16z" fill="#0066b1"/></svg>